<mxfile host="app.diagrams.net" modified="2022-02-22T04:25:23.463Z" agent="5.0 (Windows NT 10.0; Win64; x64) AppleWebKit/537.36 (KHTML, like Gecko) Chrome/98.0.4758.102 Safari/537.36" etag="e9F-_B617hWX0IFC2zvT" version="16.5.6" type="github">
  <diagram id="C5RBs43oDa-KdzZeNtuy" name="Page-1">
    <mxGraphModel dx="1209" dy="642" grid="1" gridSize="10" guides="1" tooltips="1" connect="1" arrows="1" fold="1" page="1" pageScale="1" pageWidth="827" pageHeight="1169" math="0" shadow="0">
      <root>
        <mxCell id="WIyWlLk6GJQsqaUBKTNV-0" />
        <mxCell id="WIyWlLk6GJQsqaUBKTNV-1" parent="WIyWlLk6GJQsqaUBKTNV-0" />
        <mxCell id="WIyWlLk6GJQsqaUBKTNV-2" value="" style="rounded=0;html=1;jettySize=auto;orthogonalLoop=1;fontSize=11;endArrow=block;endFill=0;endSize=8;strokeWidth=1;shadow=0;labelBackgroundColor=none;edgeStyle=orthogonalEdgeStyle;" parent="WIyWlLk6GJQsqaUBKTNV-1" source="WIyWlLk6GJQsqaUBKTNV-3" target="WIyWlLk6GJQsqaUBKTNV-6" edge="1">
          <mxGeometry relative="1" as="geometry" />
        </mxCell>
        <mxCell id="WIyWlLk6GJQsqaUBKTNV-3" value="Field Data Collection" style="rounded=1;whiteSpace=wrap;html=1;fontSize=12;glass=0;strokeWidth=1;shadow=0;" parent="WIyWlLk6GJQsqaUBKTNV-1" vertex="1">
          <mxGeometry x="160" y="80" width="120" height="40" as="geometry" />
        </mxCell>
        <mxCell id="WIyWlLk6GJQsqaUBKTNV-4" value="Yes" style="rounded=0;html=1;jettySize=auto;orthogonalLoop=1;fontSize=11;endArrow=block;endFill=0;endSize=8;strokeWidth=1;shadow=0;labelBackgroundColor=none;edgeStyle=orthogonalEdgeStyle;" parent="WIyWlLk6GJQsqaUBKTNV-1" source="WIyWlLk6GJQsqaUBKTNV-6" target="WIyWlLk6GJQsqaUBKTNV-10" edge="1">
          <mxGeometry y="20" relative="1" as="geometry">
            <mxPoint as="offset" />
          </mxGeometry>
        </mxCell>
        <mxCell id="WIyWlLk6GJQsqaUBKTNV-5" value="No" style="edgeStyle=orthogonalEdgeStyle;rounded=0;html=1;jettySize=auto;orthogonalLoop=1;fontSize=11;endArrow=block;endFill=0;endSize=8;strokeWidth=1;shadow=0;labelBackgroundColor=none;" parent="WIyWlLk6GJQsqaUBKTNV-1" source="WIyWlLk6GJQsqaUBKTNV-6" target="WIyWlLk6GJQsqaUBKTNV-7" edge="1">
          <mxGeometry y="10" relative="1" as="geometry">
            <mxPoint as="offset" />
          </mxGeometry>
        </mxCell>
        <mxCell id="WIyWlLk6GJQsqaUBKTNV-6" value="Lamp&lt;br&gt;plugged in?" style="rhombus;whiteSpace=wrap;html=1;shadow=0;fontFamily=Helvetica;fontSize=12;align=center;strokeWidth=1;spacing=6;spacingTop=-4;" parent="WIyWlLk6GJQsqaUBKTNV-1" vertex="1">
          <mxGeometry x="170" y="170" width="100" height="80" as="geometry" />
        </mxCell>
        <mxCell id="WIyWlLk6GJQsqaUBKTNV-7" value="Plug in lamp" style="rounded=1;whiteSpace=wrap;html=1;fontSize=12;glass=0;strokeWidth=1;shadow=0;" parent="WIyWlLk6GJQsqaUBKTNV-1" vertex="1">
          <mxGeometry x="320" y="190" width="120" height="40" as="geometry" />
        </mxCell>
        <mxCell id="WIyWlLk6GJQsqaUBKTNV-8" value="No" style="rounded=0;html=1;jettySize=auto;orthogonalLoop=1;fontSize=11;endArrow=block;endFill=0;endSize=8;strokeWidth=1;shadow=0;labelBackgroundColor=none;edgeStyle=orthogonalEdgeStyle;" parent="WIyWlLk6GJQsqaUBKTNV-1" source="WIyWlLk6GJQsqaUBKTNV-10" target="WIyWlLk6GJQsqaUBKTNV-11" edge="1">
          <mxGeometry x="0.3333" y="20" relative="1" as="geometry">
            <mxPoint as="offset" />
          </mxGeometry>
        </mxCell>
        <mxCell id="WIyWlLk6GJQsqaUBKTNV-9" value="Yes" style="edgeStyle=orthogonalEdgeStyle;rounded=0;html=1;jettySize=auto;orthogonalLoop=1;fontSize=11;endArrow=block;endFill=0;endSize=8;strokeWidth=1;shadow=0;labelBackgroundColor=none;" parent="WIyWlLk6GJQsqaUBKTNV-1" source="WIyWlLk6GJQsqaUBKTNV-10" target="WIyWlLk6GJQsqaUBKTNV-12" edge="1">
          <mxGeometry y="10" relative="1" as="geometry">
            <mxPoint as="offset" />
          </mxGeometry>
        </mxCell>
        <mxCell id="WIyWlLk6GJQsqaUBKTNV-10" value="Bulb&lt;br&gt;burned out?" style="rhombus;whiteSpace=wrap;html=1;shadow=0;fontFamily=Helvetica;fontSize=12;align=center;strokeWidth=1;spacing=6;spacingTop=-4;" parent="WIyWlLk6GJQsqaUBKTNV-1" vertex="1">
          <mxGeometry x="170" y="290" width="100" height="80" as="geometry" />
        </mxCell>
        <mxCell id="WIyWlLk6GJQsqaUBKTNV-11" value="Repair Lamp" style="rounded=1;whiteSpace=wrap;html=1;fontSize=12;glass=0;strokeWidth=1;shadow=0;" parent="WIyWlLk6GJQsqaUBKTNV-1" vertex="1">
          <mxGeometry x="160" y="430" width="120" height="40" as="geometry" />
        </mxCell>
        <mxCell id="WIyWlLk6GJQsqaUBKTNV-12" value="Replace Bulb" style="rounded=1;whiteSpace=wrap;html=1;fontSize=12;glass=0;strokeWidth=1;shadow=0;" parent="WIyWlLk6GJQsqaUBKTNV-1" vertex="1">
          <mxGeometry x="320" y="310" width="120" height="40" as="geometry" />
        </mxCell>
        <mxCell id="5wukw9A-v_q9HqeC5ODj-3" value="" style="edgeStyle=orthogonalEdgeStyle;rounded=0;orthogonalLoop=1;jettySize=auto;html=1;" edge="1" parent="WIyWlLk6GJQsqaUBKTNV-1" source="5wukw9A-v_q9HqeC5ODj-2" target="WIyWlLk6GJQsqaUBKTNV-3">
          <mxGeometry relative="1" as="geometry" />
        </mxCell>
        <mxCell id="5wukw9A-v_q9HqeC5ODj-2" value="" style="shape=image;imageAspect=0;aspect=fixed;verticalLabelPosition=bottom;verticalAlign=top;image=data:image/jpeg,/9j/4AAQSkZJRgABAQAAAQABAAD/2wCEAAkGBw8SEhAQEBIVFhIVFRYVFRUVFRAYEBUSFRUWFhUVFxUZHSggGBslHRUVITEhJSkrLi4uFx8zOD8wNygtLisBCgoKDg0OGhAQGi8lHx8tKy0rKy0tLS0tLS0rLS0tLS0rKystLS0tKy0tKy0tLS0tLSsrLTcuKy0rLS03LSs3K//AABEIAOYA2wMBIgACEQEDEQH/xAAcAAEAAQUBAQAAAAAAAAAAAAAAAQIDBQYHBAj/xAA+EAACAQIDBQQHBQcEAwAAAAAAAQIDEQQhMQUSQXGBBiJRYQcTMkJSkcEjYnKhsRQzU4LR4fBDg6LxFWOy/8QAGQEBAAMBAQAAAAAAAAAAAAAAAAECAwQF/8QAIxEBAQEAAgICAgIDAAAAAAAAAAECAxEhMQRREjJScRNBQv/aAAwDAQACEQMRAD8A7iAAAAAAAAAAAAAAAAAAAAAAAAAAAAAAAAAAAAAAAAAAAAAAAAAAAAAAAAAAAAAAAAAAAAAAAAAAAAAAAAAAAAAAAAAQBILOJxEKcXOpJRitXJpL5mmYz0o7Np1lRvUlf34xW50u030RPSut5z7reQeDZm1sPiI71CrGa8n3lzWqPdchMvaQAEgAAAAAAAAAAAAAAAAAAAAAAABFy3WrRhFynJRitW2kl1NH7QekejTvDCx9bLTfeVJcuMvyRMlqm+TOfdbxiMRCnFzqSjGKzcpNKK5tmkbe9I1GF4YWPrJfHK6prlxkc62vt3E4qW9WqOS4R0guUUY7eNJj7cfJ8q3xlk9q7axOJlvV6jl4LSC8lFZIxrhG6dlfx4kXJL9OW6t816MPXnBqVOTjJaNNqXzRt2xvSHiqVo10qsfF2jVS5rJ9UaTcb5Fytnk1n07hsbthgsRaMaihN+5UtF38no+hsFz5wTX+aGc2P2sxuGsoVN6C9yfehbwXFdGUuPp1Y+X/ACjugNI2J6RsNUtHERdGXjfepPra66o3LD4iFSKlTkpReji01+RSyx1Z3nXqroAIXAAAAAAAAADnvb30gSws3hsKouqvbnJXjBtX3UuMuegHQgcNwHpS2hTmnVcKsOMXFRlbylHT5M672d27QxtGNehK6eUov2oS+GS8f1Js6GVIuQ2ah2j9IGFw94Un66qsrRf2afnP+gk7V3vOZ3qtuqVFFNyaSWrbsl1NJ7Q+kbDUrww321TTezVJdfe6HOdu9qcXjG/Wz7nCnG8aa6cephr/AOcDScf24eT5nfjLLba7QYrFScq1RtcILKnHlHTrqYveKLk3NOo47u291VclMouVJk9I7V3FygXHSe1TZFyLkXCO1VwpFNyAjtcU1x/L+h7dmbWxOHlv0Kso+O63uv8AFF5PqjHMJiwmrPMdM2J6TtI4un/uU/rD+hvuy9s4bEx3qFWM1xSdpLnF5o+eVLx/uXsPiJwkp05OMlo4tqSM7x/Tr4/l6n7eX0dck5FsP0kYmlaOISqw8fZqrrpLqdB2L2pweKsqVRKb9yXdn0T16GdzY7cc+N+qzgIRJVsAAAfNfaTf/acTv33vWzvf8TPpQ556Q+wqxDni8O1Gpa9SLyjNRXtJ8JWXUmIrilm7yfsp211dr2sZXZmIxeGdOvRxCpSbT9XFyc3HxnG27Z+Dd8zz7S2fWw9l6pu7vvP2ZLxi/ZCvxRtnPft5/P8AL/H9Gybe7Z43FrcnPdhbOFO6jLzlxfLQ1+/+cChy6EGkzI83fLrV7tXHWatpbPws76fIlMt3Krojpb/JdTyrJuUbxKYJVRKKbk3CU3FyBck7VEXKd4jeCO1dxct3JUgj8laYKUypMHaUSQiSFlW945/qTlwfz16MpGQS2jY/b3F4WP2lRVKUfdqXc+UZa/M6B2W7f4LG7sIuVOq8tyejf3ZLJ/kzkmG2W6i3qndp+LWcvwrjz0M9sOnTp1KMKMd1eshd5b8u8tXw5Iz1mO3g5dzxXaiSESYvSDz4+DlTqRWrhJLrFo9BDBXFPWNJxaTjxjJXjfk+JjMVsalPOk/Vy+GV3TfKWset0Zjaa3K1aPhUmv8AkzyTd89H/wAf7G8v08bUl8VrGMwdWk92pFxvo/dfJ6M85tyrtLckk4v3ZJSpy5cL8rM8OK2NSnnSfq5fBN3pvlP3epeaYa4f4tfFy9i8JVpPdqQcX52s/NNZPoecswssVplSZaJB2uXJTLVyq46W/JNxcgi4V7VJhspuRcHau4uU3CYO1dyq5b3ibjpMq4pFVy0mZjCbItaWIbitVBfvHz+Fc8yL4a4l16eLC4apUe7CLfj4JeLeiMxhcFTp5u1Sfi/3cX5L3n5vIuupluU4qMfhj+sm9ebEYdf/AJ+XHqUt7dWeOZXLuXeb68beS8DJ9maMZYrDq3vp5+Wf0MajN9i4XxdLy3n/AMWRfTXHnUdVRJBJg9IADA472shu4vEL79/mkzFtmb7ex3cZU81F/Nf2NfUjeenkcnjdi7vfLw4PoUuHw5fdd93o9V1uUqQ3iVFyGJaXq5pOL/05q8X+H+qZ4cRsSlPOhLdl/DqPu/y1Poz1OV1Z5rWz0v48/Mo3X7rv5Sf6S+j+Y9Fkvtr2Jw06cnCpFxkuDVnz815lo2yOJTj6qpFTivcms4/heseh4MTsOMs8NK7/AIc2lP8AllpLlky00w1w3/lgiUVVqUotxlFqS1TTTXQoLMU3BAuSguAQBJJBVCLbUYptvJJZtvwQShHs2fs+pWb3VaK9qcsoR6+Pke/DbJjT72IzlwpRef8AuS4clmeurWlNLSMI6JZU4dP8ZS6+nTx/HvvScNSpUf3fenxqyWa/BH3V5u7KnCXvXXj8b+enNnhqbShF93X4nr0XD9SintSLySbfFIp/bqz1+uWSulksl/mbfEzvYvZkcTVlKavTp2uuEpvRPyRr+9dXV81x1N79G1C2GT4znKT+dkV3eo14cd78sr2owuHlhazUYqVNXi4pJpppWuvlY1vsDG+Lj5Qm/wArfUyPbGtCjS/Z4vvVHvS8op3/ADf6Hj9HNNvEylZ2VNpvgm2rK/iVn6tddXlnTpQAKOoAAHPPSHsDEzq/tNKG/DcSko5zTjfPd4rkc/U+B9BMwO3+ymGxV3KO5U4VI23r+a0l1L5304+b435X8suOqRKkZjb3ZXFYW8pLfp/xIJ2X4lrEwSmay9uHWdZvVXrkplnfJUiULzaatJXXXLk9V0I3X7ve8nZT+ej/ACZQpE7xCe16daNRKFaO+lkr5VYcpark7oxuK2JLOVB+sWrhpWS/D73Q9zlfVX/VcmRZrOLv+Ul0480J3DWc69tba4f9kM2av6ut+9jd/wASNlVXPhLkzGYjZE4d+P2tNa7l1JL70dY/mWmmGuGz16YwFOz5VatZwVFtO+6k/lmZWVGhh861qlXhSi/s4v8A9k1r+FE/lEXh1Pa1gNmzqd5tQpLWpLKPKPxS8kZijOnSVqCabylUf72XkreyvJZmHeMrVu/NqNNZJ6U4rwjFa9Cf/KRjlBP8T9p8vhXkit7rfjmMMvufFr8PvdXw/UsYq8l5cEskuSLGGx0JXtw1yyR6lZlXRZ3GuY68b3yMR+2yhdZrfd5cHbhG5tm1MGpwlFatZGAew68rTSV2u8nqsrX8yNXtr8bEz3ayGyNrNd1PeivHXTReBvOxNuVqEXGk4uLd0mruMn4W/Q59srY1aMpScJNQ1tFtbz9m9vE7n6PuykaFGFWvD7eXeSa/dp6ZcJGff26dcffnLw7J7KVsTL1+McoqWe68qkl5/CjesFgqdGKhSioxXBfXxZfsSRb2tnEyAAhcAAAAAUuK0NQ7Qdg8PWvOhajU1yX2TfnHh0NxIJl6U1jOp1XB9sbExOFlu1oNLhJZ05cpfRngUj6DxGHhOLhOKlF6qSTT6M0LtB6Oou9TBy3Xr6qT7n8stVydzSb+3FyfFs85c6UipSJx2FqUZunWg4TXCS1XivFeaLG8aOT09CkTvFiMitSAvqaeufnx/v1IjValeN1Z5NPP8tC1cim+9Pp+hC008terNTquEnF1LKW7lfyy08/Es0cJBZzW8+Eb93+Z8eSL1aKU5NFmL70uS+oTZFjGqbd29NFwS8EuCMXWnb52XM2FQTMXtXZ0pbrh45+JNvhPHxfluVjqGMteN3uJ3dnZzlzMngttSWU0t2+Vr3V9OZhquEnCylFrPXg+oim3rq7LwMe69S5mp0279qjLRprxN37Kdi61dKpXTp0tUv8AUnyXurzOYbPxdXDVIVIpKUWpRbipRb809V5Gx7Y9IOPxNSMoTlSUbbsKLdrpZyfF8Xnoie7Wc4Z/t3fZ+z6NGCp0oKMVwS1fi3xfmes512Z9JeH9RFY2TVeLcW4xcoyS0ndZf9G3bG7S4PFZUK0ZS13dJ2/Cyl7bRlwECEgAAAAAAAAAAAADxbU2XQxEPV14KceF9U/FPVM5x2h9H1aneeEfrIcYPKquXCX6nVCCZbGXJxZ37fOtVOLcZJqSyaaaafmiFM7lt/sxhcWvtYWnwqRyqLrxXk7nMO0XYjFYW84J1aPxQT34r70fqjWblcPJ8fWPM8xr6kKb70v5fqWoyK4PvS5R+pdzqK6zfQ8qecun1PbJXb5HmnDvS5L6kNFKrWKoVkynCbNxGIqKjQpynN8EskvGT0ivNnWexvo6o4bdrYq1Wus0s/U035J+0/N9CmtOngxa1/sv2JrYlKdderoPxX2k15R4LzZsO3vRfga0F+zr1FWKtGSzjJ/fXG/ije0iTO3t15xMvnjtX2UxuBg3WjGVJuynB3hd6LOzi9eBqFFttvgsj6O9IewamNwcqVG3rFJTim7JuOqvwyOEbV7OYvCKKxNJ03O7jdxafjnFtXLZWrwKZfwmKnCUZwk4zi7xkspJrRnklcqoq5dD6S7E7beMwlKtL284VPDfjk2ueT6meNM9E+ElT2fCUv8AUnOa/DeyfW1zczK+1gAEAAAAAAAAAAAAAAEWJAGqdpew+GxN50/sqzz3oruyf3oceazOXba2BisJUarw7rso1I505a8eD8md8sWsRh4Ti4TipReTjJJxa80y2dWMOT4+d/2+fIavkbD2Z7F18XL1k706DS77XelbVQT/AFeXM6DQ7DYCFX1qpvyg23ST/C/0NljFLJafkTd/SvH8fr9mP2NsXD4WHq6EFFcXrOT8ZS1ZkCQUdEnQAAlFjHbf2JQxlKVGvG8XmmvajLhKL4MyQA4dtz0V46nJ/s7jWp3yd1Gp/NF5fJl7sz6LcXOpGWLtSpJ3aunUl91W05narE2LflUdLeHoxhGMIJKMUoxS0SSskXACqQAAAAAAAAAAAAAAAAAAAAAAAAAAAAAAAAAAAAAAAAAAAAAAAAAAAAAAAAAAAAAAAAAAAAAAAAAAAAAAAAAAAAAAAAAAAAAAAAAAAAAAAAAAAAAAAAAAf//Z;" vertex="1" parent="WIyWlLk6GJQsqaUBKTNV-1">
          <mxGeometry x="40" y="55" width="85.7" height="90" as="geometry" />
        </mxCell>
      </root>
    </mxGraphModel>
  </diagram>
</mxfile>
